<svg id="Background-image" xmlns="http://www.w3.org/2000/svg" viewBox="0 0 941 780">
  <circle id="Elipse_1" data-name="Elipse 1" cx="373" cy="373" r="373" transform="translate(195)" fill="#f2f2f2"/>
  <path id="Caminho_1" data-name="Caminho 1" d="M1041.5,792c0,15.464-204.158,48-456,48s-456-32.536-456-48,204.158-8,456-8S1041.5,776.536,1041.5,792Z" transform="translate(-129.5 -60)" fill="#3f3d56"/>
  <path id="Caminho_2" data-name="Caminho 2" d="M1041.5,792c0,15.464-204.158,48-456,48s-456-32.536-456-48,204.158-8,456-8S1041.5,776.536,1041.5,792Z" transform="translate(-129.5 -60)" opacity="0.1"/>
  <ellipse id="Elipse_2" data-name="Elipse 2" cx="456" cy="28" rx="456" ry="28" transform="translate(0 704)" fill="#3f3d56"/>
  <path id="Caminho_3" data-name="Caminho 3" d="M851.689,659.413c0,63.2,39.651,114.348,88.652,114.348" transform="translate(-129.5 -60)" fill="#3f3d56"/>
  <path id="Caminho_4" data-name="Caminho 4" d="M940.34,773.761c0-63.914,44.248-115.633,98.93-115.633" transform="translate(-129.5 -60)" fill="#007acc"/>
  <path id="Caminho_5" data-name="Caminho 5" d="M883.809,665.142c0,60.037,25.285,108.619,56.532,108.619" transform="translate(-129.5 -60)" fill="#007acc"/>
  <path id="Caminho_6" data-name="Caminho 6" d="M940.34,773.761c0-81.668,51.144-147.753,114.348-147.753" transform="translate(-129.5 -60)" fill="#3f3d56"/>
  <path id="Caminho_7" data-name="Caminho 7" d="M921.69,774.567s12.572-.387,16.361-3.085,19.339-5.92,20.279-1.593,18.894,21.521,4.7,21.636-32.981-2.211-36.762-4.515S921.69,774.567,921.69,774.567Z" transform="translate(-129.5 -60)" fill="#a8a8a8"/>
  <path id="Caminho_8" data-name="Caminho 8" d="M963.284,790.018c-14.194.115-32.981-2.211-36.762-4.515-2.88-1.754-4.028-8.049-4.412-10.953-.266.011-.42.016-.42.016s.8,10.14,4.578,12.443,22.568,4.629,36.762,4.515c4.1-.033,5.513-1.491,5.435-3.65C967.9,789.179,966.334,789.994,963.284,790.018Z" transform="translate(-129.5 -60)" opacity="0.2"/>
  <path id="Caminho_9" data-name="Caminho 9" d="M702.135,295.316s12.792,26.864,7.675,39.656S729,361.836,729,361.836l31.981-17.909V320.9l-5.117-10.234s-20.468-11.513-17.909-29.422S702.135,295.316,702.135,295.316Z" transform="translate(-129.5 -60)" fill="#ffb9b9"/>
  <path id="Caminho_10" data-name="Caminho 10" d="M702.135,295.316s12.792,26.864,7.675,39.656S729,361.836,729,361.836l31.981-17.909V320.9l-5.117-10.234s-20.468-11.513-17.909-29.422S702.135,295.316,702.135,295.316Z" transform="translate(-129.5 -60)" opacity="0.1"/>
  <path id="Caminho_11" data-name="Caminho 11" d="M677.83,407.888s-2.558,28.143-2.558,31.981-3.838,16.63-3.838,16.63-14.072,65.241-23.026,71.637-14.072,46.052,0,43.494,17.909-37.1,17.909-37.1l29.125-55L699.577,413Z" transform="translate(-129.5 -60)" fill="#ffb9b9"/>
  <path id="Caminho_12" data-name="Caminho 12" d="M688.064,351.6H677.83s-10.234,61.4,0,63.962,29.422,2.558,29.422,2.558Z" transform="translate(-129.5 -60)" fill="#004878"/>
  <path id="Caminho_13" data-name="Caminho 13" d="M616.129,686.885l5.117,24.3,10.234-7.675-5.117-21.747L616.129,685.6Z" fill="#ffb9b9"/>
  <path id="Caminho_14" data-name="Caminho 14" d="M699.577,487.2l-7.675,5.117s-3.838,44.773,5.117,79.312,15.35,75.474,15.35,75.474S727.72,749.443,731.557,752s28.143,3.838,29.422-1.279-8.955-101.059-8.955-101.059-7.675-80.592-1.279-90.826c0,0,20.468,88.267,26.864,97.222,0,0,8.955,97.222,14.072,99.78s29.422,3.838,30.7-1.279-7.675-115.131-11.513-124.085S805.753,488.48,796.8,489.759,699.577,487.2,699.577,487.2Z" transform="translate(-129.5 -60)" fill="#2f2e41"/>
  <circle id="Elipse_3" data-name="Elipse 3" cx="29.422" cy="29.422" r="29.422" transform="translate(556.006 187.985)" fill="#ffb9b9"/>
  <path id="Caminho_15" data-name="Caminho 15" d="M726.441,342.647l-6.4-11.513s-7.675-10.234-11.513-7.675-3.838,11.513-3.838,11.513-29.422,10.234-26.864,24.305,19.188,38.377,19.188,38.377,2.558,20.468,0,25.585-7.675,8.955-3.838,14.072,5.117,6.4,3.838,12.792-3.838,8.955-1.279,11.513-1.279,29.422-3.838,30.7,81.871,14.072,88.267,10.234,24.305-3.838,23.026-7.675-6.4-26.864-6.4-30.7,0-20.468-1.279-21.747,1.279-20.468,1.279-20.468l-6.4-53.728,20.468-31.981s-5.117-17.909-29.422-20.468-31.029-8.955-31.029-8.955-2.231,11.513-7.348,14.072S726.441,342.647,726.441,342.647Z" transform="translate(-129.5 -60)" fill="#004878"/>
  <path id="Caminho_16" data-name="Caminho 16" d="M819.825,377.187l7.675,57.565L810.87,517.9s-6.4,47.332-19.188,46.052,0-51.169,0-51.169l10.233-78.033s-16.63-39.656-12.792-44.773S819.825,377.187,819.825,377.187Z" transform="translate(-129.5 -60)" fill="#ffb9b9"/>
  <path id="Caminho_17" data-name="Caminho 17" d="M757.142,759.677s-16.63-8.955-20.468-7.675S729,771.19,729,771.19s-29.422,21.747-10.234,26.864,26.864-6.4,26.864-6.4,19.188-10.234,19.188-12.792-2.558-19.188-2.558-19.188Z" transform="translate(-129.5 -60)" fill="#2f2e41"/>
  <path id="Caminho_18" data-name="Caminho 18" d="M795.519,753.281s-7.675,42.215-2.558,44.773,26.864,6.4,29.422,0,2.558-21.747,1.279-26.864-5.117-17.909-5.117-17.909Z" transform="translate(-129.5 -60)" fill="#2f2e41"/>
  <path id="Caminho_19" data-name="Caminho 19" d="M709.8,230.869a6.826,6.826,0,0,0-3.525-.107c-1.468.479-2.432,1.836-3.552,2.9-2.934,2.785-7.125,3.657-10.949,4.976s-7.847,3.655-8.8,7.585a41.3,41.3,0,0,0-.417,4.773c-.57,4.637-4.107,8.812-3.474,13.441.413,3.024,2.569,5.589,3.012,8.609.493,3.367-1.208,6.871-.259,10.139.93,3.2,4.075,5.154,6.973,6.8q1.864-11.834,4.479-23.533a8.5,8.5,0,0,1,1.595-3.889c2.572-2.914,7.617-1.254,10.955-3.245,1.268-.756,2.209-2,3.541-2.641,3.856-1.843,8.028,2.24,12.3,2.279,1.886.017,3.955-.732,5.548.277a5.07,5.07,0,0,1,1.623,2c1.523,2.859,2.36,6.071,4.136,8.779s4.957,4.918,8.106,4.159c-.481-2.442,1.431-4.639,2.2-7.008,1.317-4.075-.836-8.5-.317-12.749.487-3.991,3.088-8.676.235-11.51a8.086,8.086,0,0,0-3.375-1.694C729.727,238.007,720.4,232.637,709.8,230.869Z" transform="translate(-129.5 -60)" fill="#2f2e41"/>
  <path id="Caminho_20" data-name="Caminho 20" d="M798.078,331.134l12.792,5.117s16.63,53.728,12.792,53.728-38.377,8.955-38.377,5.117S787.844,331.134,798.078,331.134Z" transform="translate(-129.5 -60)" fill="#004878"/>
</svg>
