<svg id="Logo" xmlns="http://www.w3.org/2000/svg" viewBox="0 0 243.627 99.984">
  <path id="Tysk" d="M63.6-68.133H38.021V0H27.738V-68.133H2.373v-9.176H63.6Zm55.529,12.182L97.717.949a1.635,1.635,0,0,0-.105.369,59.384,59.384,0,0,1-7.146,15.425,13.285,13.285,0,0,1-11.628,5.933,22.839,22.839,0,0,1-6.17-1.055l-.949-8.965A18.231,18.231,0,0,0,77.1,13.5q5.273,0,7.3-2.9T88.963.105L67.711-55.951h10.23L91.125-19.3q1.16,3.375,2.479,8.7h.211a84.648,84.648,0,0,1,3.375-11.654l12.287-33.7Zm39.287,15.662a9.8,9.8,0,0,0-3.718-6.882q-3.085-2.294-8.569-2.294a18.141,18.141,0,0,0-8.78,1.846A5.838,5.838,0,0,0,134-42.24a4.957,4.957,0,0,0,2.663,4.746q2.663,1.424,10.521,3.48a119.386,119.386,0,0,1,13.263,4.008,15.845,15.845,0,0,1,6.855,4.878q2.452,3.138,2.452,8.728a15.819,15.819,0,0,1-6.117,12.6q-6.117,5.115-16.348,5.115-10.652,0-16.638-4.509t-7.356-13.526l9.439-1.424q.738,5.854,4.351,8.754t10.1,2.9q6.223,0,9.545-2.61a7.834,7.834,0,0,0,3.322-6.354,5.488,5.488,0,0,0-1.529-4.061,9.6,9.6,0,0,0-3.823-2.294q-2.294-.765-10.31-2.716-11.918-2.848-15.741-6.908a13.663,13.663,0,0,1-3.823-9.7,14.232,14.232,0,0,1,5.59-11.549q5.59-4.535,15.029-4.535,10.02,0,15.583,3.929T167.7-41.555ZM227.549,0H215.895L197.279-28.635l-6.7,6.381V0H181.09V-77.309h9.492v44.033l22.465-22.676h12.34l-21.41,20.725Z" transform="translate(-2.373 77.309)" fill="#313131"/>
  <circle id="Check-filled" cx="11" cy="11" r="11" transform="translate(221.627 39.309)" fill="#007acc"/>
</svg>
