<svg xmlns="http://www.w3.org/2000/svg" xmlns:xlink="http://www.w3.org/1999/xlink" viewBox="0 0 618 748"><defs><filter id="a" x="86" y="0" width="460" height="204" filterUnits="userSpaceOnUse"><feOffset input="SourceAlpha"/><feGaussianBlur stdDeviation="25" result="b"/><feFlood flood-opacity="0.161"/><feComposite operator="in" in2="b"/><feComposite in="SourceGraphic"/></filter><filter id="c" x="169" y="109" width="430" height="204" filterUnits="userSpaceOnUse"><feOffset input="SourceAlpha"/><feGaussianBlur stdDeviation="25" result="d"/><feFlood flood-opacity="0.161"/><feComposite operator="in" in2="d"/><feComposite in="SourceGraphic"/></filter><filter id="e" x="0" y="218" width="490" height="204" filterUnits="userSpaceOnUse"><feOffset input="SourceAlpha"/><feGaussianBlur stdDeviation="25" result="f"/><feFlood flood-opacity="0.161"/><feComposite operator="in" in2="f"/><feComposite in="SourceGraphic"/></filter><filter id="g" x="169" y="326" width="449" height="204" filterUnits="userSpaceOnUse"><feOffset input="SourceAlpha"/><feGaussianBlur stdDeviation="25" result="h"/><feFlood flood-opacity="0.161"/><feComposite operator="in" in2="h"/><feComposite in="SourceGraphic"/></filter><filter id="i" x="59" y="435" width="400" height="204" filterUnits="userSpaceOnUse"><feOffset input="SourceAlpha"/><feGaussianBlur stdDeviation="25" result="j"/><feFlood flood-opacity="0.161"/><feComposite operator="in" in2="j"/><feComposite in="SourceGraphic"/></filter><filter id="k" x="129" y="544" width="400" height="204" filterUnits="userSpaceOnUse"><feOffset input="SourceAlpha"/><feGaussianBlur stdDeviation="25" result="l"/><feFlood flood-opacity="0.161"/><feComposite operator="in" in2="l"/><feComposite in="SourceGraphic"/></filter></defs><g transform="translate(-796 -42)" opacity="0.5"><g transform="translate(957 117)"><g transform="matrix(1, 0, 0, 1, -161, -75)" filter="url(#a)"><rect width="310" height="54" rx="13" transform="translate(161 75)" fill="#fff"/></g><text transform="translate(54 33)" fill="#313131" font-size="16" font-family="Arvo" text-decoration="line-through"><tspan x="0" y="0">schedule team meeting</tspan></text><g transform="translate(13.5 13.5)"><path d="M27.562,14.062a13.5,13.5,0,1,1-13.5-13.5A13.5,13.5,0,0,1,27.562,14.062ZM12.5,21.211,22.517,11.195a.871.871,0,0,0,0-1.232L21.285,8.731a.871.871,0,0,0-1.232,0L11.885,16.9,8.071,13.086a.871.871,0,0,0-1.232,0L5.608,14.318a.871.871,0,0,0,0,1.232l5.661,5.661A.871.871,0,0,0,12.5,21.211Z" transform="translate(-0.563 -0.563)" fill="#007acc"/></g></g><g transform="translate(1040 225.8)"><g transform="matrix(1, 0, 0, 1, -244, -183.8)" filter="url(#c)"><rect width="280" height="54" rx="13" transform="translate(244 184)" fill="#fff"/></g><g transform="translate(13.5 13.5)"><path d="M27.562,14.062a13.5,13.5,0,1,1-13.5-13.5A13.5,13.5,0,0,1,27.562,14.062ZM12.5,21.211,22.517,11.195a.871.871,0,0,0,0-1.232L21.285,8.731a.871.871,0,0,0-1.232,0L11.885,16.9,8.071,13.086a.871.871,0,0,0-1.232,0L5.608,14.318a.871.871,0,0,0,0,1.232l5.661,5.661A.871.871,0,0,0,12.5,21.211Z" transform="translate(-0.563 -0.563)" fill="#007acc"/></g><text transform="translate(54 33.2)" fill="#313131" font-size="16" font-family="Arvo" text-decoration="line-through"><tspan x="0" y="0">follow up with leads</tspan></text></g><g transform="translate(871 334.6)"><g transform="matrix(1, 0, 0, 1, -75, -292.6)" filter="url(#e)"><rect width="340" height="54" rx="13" transform="translate(75 293)" fill="#fff"/></g><g transform="translate(13.5 13.5)"><path d="M27.562,14.062a13.5,13.5,0,1,1-13.5-13.5A13.5,13.5,0,0,1,27.562,14.062ZM12.5,21.211,22.517,11.195a.871.871,0,0,0,0-1.232L21.285,8.731a.871.871,0,0,0-1.232,0L11.885,16.9,8.071,13.086a.871.871,0,0,0-1.232,0L5.608,14.318a.871.871,0,0,0,0,1.232l5.661,5.661A.871.871,0,0,0,12.5,21.211Z" transform="translate(-0.563 -0.563)" fill="#007acc"/></g><text transform="translate(54 33.4)" fill="#313131" font-size="16" font-family="Arvo" text-decoration="line-through"><tspan x="0" y="0">post social media updates</tspan></text></g><g transform="translate(1040 443.4)"><g transform="matrix(1, 0, 0, 1, -244, -401.4)" filter="url(#g)"><rect width="299" height="54" rx="13" transform="translate(244 401)" fill="#fff"/></g><g transform="translate(13.5 13.5)"><path d="M27.562,14.062a13.5,13.5,0,1,1-13.5-13.5A13.5,13.5,0,0,1,27.562,14.062ZM12.5,21.211,22.517,11.195a.871.871,0,0,0,0-1.232L21.285,8.731a.871.871,0,0,0-1.232,0L11.885,16.9,8.071,13.086a.871.871,0,0,0-1.232,0L5.608,14.318a.871.871,0,0,0,0,1.232l5.661,5.661A.871.871,0,0,0,12.5,21.211Z" transform="translate(-0.563 -0.563)" fill="#007acc"/></g><text transform="translate(54 32.6)" fill="#313131" font-size="16" font-family="Arvo" text-decoration="line-through"><tspan x="0" y="0">write marketing email</tspan></text></g><g transform="translate(930 552.2)"><g transform="matrix(1, 0, 0, 1, -134, -510.2)" filter="url(#i)"><rect width="250" height="54" rx="13" transform="translate(134 510)" fill="#fff"/></g><g transform="translate(13.5 13.5)"><path d="M27.562,14.062a13.5,13.5,0,1,1-13.5-13.5A13.5,13.5,0,0,1,27.562,14.062Z" transform="translate(-0.563 -0.563)" fill="none" stroke="#000" stroke-width="1" opacity="0.3"/></g><text transform="translate(54 32.8)" fill="#313131" font-size="16" font-family="Arvo"><tspan x="0" y="0">get an assistant</tspan></text></g><g transform="translate(1000 661)"><g transform="matrix(1, 0, 0, 1, -204, -619)" filter="url(#k)"><rect width="250" height="54" rx="13" transform="translate(204 619)" fill="#fff"/></g><g transform="translate(13.5 13.5)"><path d="M27.562,14.062a13.5,13.5,0,1,1-13.5-13.5A13.5,13.5,0,0,1,27.562,14.062Z" transform="translate(-0.563 -0.563)" fill="none" stroke="#000" stroke-width="1" opacity="0.3"/></g><text transform="translate(54 33)" fill="#313131" font-size="16" font-family="Arvo"><tspan x="0" y="0">get a task manager</tspan></text></g></g></svg>
